<?xml version="1.0" encoding="utf-8"?>
<!-- Svg Vector Icons : http://www.onlinewebfonts.com/icon -->
<!DOCTYPE svg PUBLIC "-//W3C//DTD SVG 1.1//EN" "http://www.w3.org/Graphics/SVG/1.1/DTD/svg11.dtd">
<svg version="1.1" xmlns="http://www.w3.org/2000/svg" xmlns:xlink="http://www.w3.org/1999/xlink" x="0px" y="0px" viewBox="0 0 1000 1000" enable-background="new 0 0 1000 1000" xml:space="preserve">
<metadata> Svg Vector Icons : http://www.onlinewebfonts.com/icon </metadata>
<g><g transform="translate(0.000000,511.000000) scale(0.100000,-0.100000)"><path d="M4525.1,4987.3C2826.4,4810.4,1371.8,3794.9,588,2242.7C456.9,1980.4,261.7,1404,197.7,1080.8c-247-1204.6-21.4-2464.1,628.2-3525.3c375.1-613,1006.4-1244.3,1616.3-1619.3c887.4-539.8,1988.3-805.1,2942.8-707.5c1259.5,128.1,2275,609.9,3122.8,1485.1C9322-2438.4,9758.1-1490,9880.1-276.3c97.6,954.5-167.7,2055.4-707.5,2942.8c-305,497.1-866.1,1094.8-1357.1,1445.5C6882.4,4776.9,5650.4,5106.2,4525.1,4987.3z M6016.3,4673.2c1131.4-262.3,2122.5-914.9,2781.2-1832.8c225.7-314.1,521.5-896.6,634.3-1247.3C9608.7,1059.5,9648.3,785,9648.3,111c0-542.8-9.1-667.9-70.1-939.3c-103.7-460.5-201.3-738-405.6-1149.7c-634.3-1283.9-1781-2165.2-3235.6-2491.5c-271.4-61-396.4-70.1-939.3-70.1c-530.6,0-670.9,12.2-933.2,70.1c-451.3,97.6-744.1,201.3-1155.8,405.6C1649.3-3441.7,764.9-2313.4,435.6-907.5c-79.3,335.5-85.4,411.7-88.4,1003.3c0,689.2,36.6,951.5,216.5,1503.4c481.8,1482.1,1750.5,2656.2,3275.2,3037.4c487.9,122,640.4,137.2,1250.3,128.1C5577.2,4755.5,5702.2,4743.3,6016.3,4673.2z"/><path d="M4311.6,4087.7c-1241.2-216.5-2351.2-1033.8-2915.4-2146.9C1277.2,1709,1262,1660.2,1262,1468.1c0-271.4,94.5-475.7,286.7-609.9c112.8-79.3,161.6-91.5,362.9-100.6c210.4-9.2,253.1-3,402.5,76.2c173.8,91.5,179.9,97.6,457.4,594.7c100.6,179.9,588.6,725.8,619.1,695.3c9.2-9.1,271.4-762.4,582.5-1677.3c521.5-1515.6,567.2-1665.1,515.4-1692.5c-137.2-79.3-381.2-344.6-457.4-500.1c-73.2-149.4-85.4-207.4-85.4-445.2c0-335.5,61-487.9,289.7-728.9c430-454.4,1094.8-454.4,1524.8,0c228.7,240.9,289.7,393.4,289.7,728.9c0,335.4-61,487.9-289.7,728.8c-216.5,231.8-457.4,335.5-768.5,335.5l-234.8,3.1l-91.5,259.2C4473.2-319,3594.9,2254.9,3594.9,2276.2c0,45.7,503.2,268.4,738,332.4c716.7,186,1433.3,70.1,2046.3-329.4c268.4-176.9,670.9-597.7,814.2-853.9C7474,928.3,7477,925.3,7650.9,833.8c149.4-79.3,192.1-85.4,402.5-76.2c201.3,9.1,250.1,21.3,362.9,100.6c192.1,134.2,286.7,338.5,283.6,609.9c0,192.1-15.2,240.9-140.3,487.9c-570.3,1122.2-1689.5,1921.2-2997.7,2134.7C5223.4,4145.6,4637.9,4145.6,4311.6,4087.7z M5354.5,3889.5c1293-143.3,2415.3-902.7,3000.8-2031c210.4-405.6,183-634.3-97.6-826.4c-88.5-61-134.2-70.1-292.8-61c-234.8,15.2-295.8,67.1-469.6,387.3c-420.9,786.8-1155.8,1351-1976.1,1515.6c-195.2,36.6-347.7,45.7-625.2,33.5c-445.2-18.3-756.3-94.5-1119.2-274.5l-262.3-131.1l-67.1,189.1c-67.1,189.1-115.9,237.9-198.2,207.4c-76.2-30.5-79.3-97.6-3.1-314.1l70.1-213.5L3122.2,2203c-231.8-204.3-484.9-533.7-652.6-844.7c-183-335.5-234.8-378.1-491-378.1c-164.7,0-228.7,12.2-292.8,64c-256.2,189.1-280.6,414.7-88.4,792.9c484.9,957.6,1402.8,1695.6,2448.8,1963.9C4494.6,3916.9,4881.9,3944.4,5354.5,3889.5z M5388.1-1447.3c609.9-305,609.9-1186.3-3-1491.2c-481.8-240.9-1046-3.1-1195.4,500.1c-57.9,189.1-57.9,305-3.1,487.9c115.9,378.2,399.5,585.5,814.2,594.7C5168.5-1352.8,5232.6-1368,5388.1-1447.3z"/><path d="M4830-1633.3c-378.1-137.2-524.5-567.2-301.9-884.4c320.2-454.4,1003.3-256.2,1042.9,301.9c12.2,161.6,3.1,192.1-91.5,326.3C5324-1660.8,5049.6-1551,4830-1633.3z M5220.4-1904.8c173.8-134.2,173.8-439.1,0-576.4c-106.7-85.4-338.5-82.3-445.2,3c-173.8,134.2-173.8,439.2,0,576.4C4881.9-1816.3,5113.6-1819.3,5220.4-1904.8z"/></g></g>
</svg>